<svg xmlns="http://www.w3.org/2000/svg" xmlns:xlink="http://www.w3.org/1999/xlink" id="Layer_1" x="0px" y="0px" viewBox="0 0 34 34" style="enable-background:new 0 0 34 34;" xml:space="preserve"> <style type="text/css"> .st0{fill-rule:evenodd;clip-rule:evenodd;fill:url(#SVGID_1_);} </style> <g> <g> <linearGradient id="SVGID_1_" gradientUnits="userSpaceOnUse" x1="17.5001" y1="32" x2="17.5001" y2="2.9711"> <stop offset="0" style="stop-color:#FCB3A4"></stop> <stop offset="1" style="stop-color:#DA5899"></stop> </linearGradient> <path class="st0" d="M27.8,7.2c-5.7-5.7-14.8-5.7-20.5,0c-5.7,5.7-5.7,14.9,0,20.5c5.7,5.7,14.8,5.7,20.5,0 C33.4,22.1,33.4,12.9,27.8,7.2z M20.8,18.4c-0.1,0.6-0.4,1.1-0.9,1.5l-6.8,5.6c-0.2,0.2-0.5,0-0.4-0.2l1.6-8.6 c0.1-0.6,0.4-1.1,0.9-1.5L22,9.5c0.2-0.2,0.5,0,0.4,0.2L20.8,18.4z"></path> </g> </g> </svg>